<svg xmlns="http://www.w3.org/2000/svg" viewBox="0 0 64 64">
  <rect width="64" height="64" rx="14" fill="#05070b"/>
  <circle cx="32" cy="32" r="27" fill="none" stroke="#24f087" stroke-width="3"/>
  <path d="M18 43V17h17c7 0 12 5 12 11s-5 11-12 11h-8v4H18zm9-12h7c3 0 5-1 5-4s-2-4-5-4h-7v8z" fill="#ffd166"/>
  <path d="M39 45c-8 0-14-6-14-14s6-14 15-14c5 0 9 2 12 5l-5 5c-2-2-4-3-7-3-4 0-7 3-7 7s3 7 7 7c3 0 5-1 6-3h-8v-6h16v4c0 9-6 16-15 16z" fill="#ff2da8" opacity=".92"/>
  <path d="M14 50h36" stroke="#24f087" stroke-width="3" stroke-linecap="round"/>
</svg>
